REM DIRINDEX 1\5,1\2\6,1\2\7,1\3\8,1\3\9,1\4\10,1\4\11,1\4\12
REM DIRNAME folder01,folder02,folder03,folder04,folder05,folder06,folder07,folder08,folder09,folder10,folder11,folder12
TITLE ""
FILE "EJE_DB3000_5th_4B_36.mp3" MP3
  TRACK 01 AUDIO
    TITLE "0:"
    INDEX 01 00:00:00
  TRACK 02 AUDIO
    TITLE "10:cjc026_09567"
    INDEX 01 00:00:05
  TRACK 03 AUDIO
    TITLE "0:"
    INDEX 01 00:00:72
  TRACK 04 AUDIO
    TITLE "11:cjc026_09568"
    INDEX 01 00:01:22
  TRACK 05 AUDIO
    TITLE "0:"
    INDEX 01 00:02:24
  TRACK 06 AUDIO
    TITLE "12:cjc026_09569"
    INDEX 01 00:02:49
  TRACK 07 AUDIO
    TITLE "0:"
    INDEX 01 00:03:41
  TRACK 08 AUDIO
    TITLE "10:cjc026_09570"
    INDEX 01 00:03:66
  TRACK 09 AUDIO
    TITLE "0:"
    INDEX 01 00:04:64
  TRACK 10 AUDIO
    TITLE "11:cjc026_09571"
    INDEX 01 00:05:14
  TRACK 11 AUDIO
    TITLE "0:"
    INDEX 01 00:06:00
  TRACK 12 AUDIO
    TITLE "12:cjc026_09572"
    INDEX 01 00:06:24
  TRACK 13 AUDIO
    TITLE "0:"
    INDEX 01 00:07:23
  TRACK 14 AUDIO
    TITLE "10:cjc026_09573"
    INDEX 01 00:07:47
  TRACK 15 AUDIO
    TITLE "0:"
    INDEX 01 00:08:36
  TRACK 16 AUDIO
    TITLE "11:cjc026_09574"
    INDEX 01 00:08:62
  TRACK 17 AUDIO
    TITLE "0:"
    INDEX 01 00:09:67
  TRACK 18 AUDIO
    TITLE "12:cjc026_09575"
    INDEX 01 00:10:19
  TRACK 19 AUDIO
    TITLE "0:"
    INDEX 01 00:11:07
  TRACK 20 AUDIO
    TITLE "10:cjc026_09576"
    INDEX 01 00:11:35
  TRACK 21 AUDIO
    TITLE "0:"
    INDEX 01 00:12:26
  TRACK 22 AUDIO
    TITLE "11:cjc026_09577"
    INDEX 01 00:12:54
  TRACK 23 AUDIO
    TITLE "0:"
    INDEX 01 00:13:41
  TRACK 24 AUDIO
    TITLE "12:cjc026_09578"
    INDEX 01 00:13:67
  TRACK 25 AUDIO
    TITLE "0:"
    INDEX 01 00:14:60
  TRACK 26 AUDIO
    TITLE "10:cjc026_09579"
    INDEX 01 00:15:11
  TRACK 27 AUDIO
    TITLE "0:"
    INDEX 01 00:16:00
  TRACK 28 AUDIO
    TITLE "11:cjc026_09580"
    INDEX 01 00:16:26
  TRACK 29 AUDIO
    TITLE "0:"
    INDEX 01 00:17:27
  TRACK 30 AUDIO
    TITLE "12:cjc026_09581"
    INDEX 01 00:17:53
  TRACK 31 AUDIO
    TITLE "0:"
    INDEX 01 00:18:44
  TRACK 32 AUDIO
    TITLE "10:cjc026_09582"
    INDEX 01 00:18:70
  TRACK 33 AUDIO
    TITLE "0:"
    INDEX 01 00:19:60
  TRACK 34 AUDIO
    TITLE "11:cjc026_09583"
    INDEX 01 00:20:12
  TRACK 35 AUDIO
    TITLE "0:"
    INDEX 01 00:21:13
  TRACK 36 AUDIO
    TITLE "12:cjc026_09584"
    INDEX 01 00:21:41
  TRACK 37 AUDIO
    TITLE "0:"
    INDEX 01 00:22:30
  TRACK 38 AUDIO
    TITLE "10:cjc026_09585"
    INDEX 01 00:22:56
  TRACK 39 AUDIO
    TITLE "0:"
    INDEX 01 00:23:55
  TRACK 40 AUDIO
    TITLE "11:cjc026_09586"
    INDEX 01 00:24:06
  TRACK 41 AUDIO
    TITLE "0:"
    INDEX 01 00:24:74
  TRACK 42 AUDIO
    TITLE "12:cjc026_09587"
    INDEX 01 00:25:23
  TRACK 43 AUDIO
    TITLE "0:"
    INDEX 01 00:26:24
  TRACK 44 AUDIO
    TITLE "10:cjc026_09588"
    INDEX 01 00:26:48
  TRACK 45 AUDIO
    TITLE "0:"
    INDEX 01 00:27:39
  TRACK 46 AUDIO
    TITLE "11:cjc026_09589"
    INDEX 01 00:27:67
  TRACK 47 AUDIO
    TITLE "0:"
    INDEX 01 00:28:55
  TRACK 48 AUDIO
    TITLE "12:cjc026_09590"
    INDEX 01 00:29:07
  TRACK 49 AUDIO
    TITLE "0:"
    INDEX 01 00:29:74
  TRACK 50 AUDIO
    TITLE "10:cjc026_09591"
    INDEX 01 00:30:24
  TRACK 51 AUDIO
    TITLE "0:"
    INDEX 01 00:31:18
  TRACK 52 AUDIO
    TITLE "11:cjc026_09592"
    INDEX 01 00:31:45
  TRACK 53 AUDIO
    TITLE "0:"
    INDEX 01 00:32:48
  TRACK 54 AUDIO
    TITLE "12:cjc026_09593"
    INDEX 01 00:33:01
  TRACK 55 AUDIO
    TITLE "0:"
    INDEX 01 00:33:68
  TRACK 56 AUDIO
    TITLE "10:cjc026_09594"
    INDEX 01 00:34:20
  TRACK 57 AUDIO
    TITLE "0:"
    INDEX 01 00:35:08
  TRACK 58 AUDIO
    TITLE "11:cjc026_09595"
    INDEX 01 00:35:35
  TRACK 59 AUDIO
    TITLE "0:"
    INDEX 01 00:36:40
  TRACK 60 AUDIO
    TITLE "12:cjc026_09596"
    INDEX 01 00:36:66
  TRACK 61 AUDIO
    TITLE "0:"
    INDEX 01 00:37:56
  TRACK 62 AUDIO
    TITLE "10:cjc026_09597"
    INDEX 01 00:38:06
  TRACK 63 AUDIO
    TITLE "0:"
    INDEX 01 00:39:00
  TRACK 64 AUDIO
    TITLE "11:cjc026_09598"
    INDEX 01 00:39:29
  TRACK 65 AUDIO
    TITLE "0:"
    INDEX 01 00:40:23
  TRACK 66 AUDIO
    TITLE "12:cjc026_09599"
    INDEX 01 00:40:48
  TRACK 67 AUDIO
    TITLE "0:"
    INDEX 01 00:41:42
  TRACK 68 AUDIO
    TITLE "10:cjc026_09600"
    INDEX 01 00:41:71
  TRACK 69 AUDIO
    TITLE "0:"
    INDEX 01 00:42:72
  TRACK 70 AUDIO
    TITLE "11:cjc026_09601"
    INDEX 01 00:43:25
  TRACK 71 AUDIO
    TITLE "0:"
    INDEX 01 00:44:30
  TRACK 72 AUDIO
    TITLE "12:cjc026_09602"
    INDEX 01 00:44:56
  TRACK 73 AUDIO
    TITLE "0:"
    INDEX 01 00:45:59
  TRACK 74 AUDIO
    TITLE "10:cjc026_09603"
    INDEX 01 00:46:11
  TRACK 75 AUDIO
    TITLE "0:"
    INDEX 01 00:47:07
  TRACK 76 AUDIO
    TITLE "11:cjc026_09604"
    INDEX 01 00:47:32
  TRACK 77 AUDIO
    TITLE "0:"
    INDEX 01 00:48:42
  TRACK 78 AUDIO
    TITLE "12:cjc026_09605"
    INDEX 01 00:48:67
  TRACK 79 AUDIO
    TITLE "0:"
    INDEX 01 00:49:63
  TRACK 80 AUDIO
    TITLE "10:cjc026_09606"
    INDEX 01 00:50:13
  TRACK 81 AUDIO
    TITLE "0:"
    INDEX 01 00:51:15
  TRACK 82 AUDIO
    TITLE "11:cjc026_09607"
    INDEX 01 00:51:40
  TRACK 83 AUDIO
    TITLE "0:"
    INDEX 01 00:53:29
  TRACK 84 AUDIO
    TITLE "12:cjc026_09608"
    INDEX 01 00:53:55
  TRACK 85 AUDIO
    TITLE "0:"
    INDEX 01 00:54:54
